<svg xmlns="http://www.w3.org/2000/svg" xmlns:xlink="http://www.w3.org/1999/xlink" width="1080" zoomAndPan="magnify" viewBox="0 0 810 809.999993" height="1080" preserveAspectRatio="xMidYMid meet" version="1.0"><path fill="#505759" d="M 374.21875 261.144531 C 363.042969 273.78125 352.511719 285.605469 350.730469 287.386719 C 348.949219 289.332031 335.179688 304.558594 319.949219 321.570312 C 290.789062 354.292969 283.5 362.230469 268.109375 379.078125 C 262.765625 384.910156 256.285156 392.039062 253.691406 394.957031 L 248.832031 400.140625 L 328.699219 400.140625 L 332.101562 392.363281 C 334.042969 388.152344 341.496094 370.171875 348.625 352.351562 C 355.753906 334.53125 367.578125 305.371094 375.03125 287.550781 C 390.257812 251.101562 395.441406 238.140625 394.792969 238.140625 C 394.632812 238.140625 385.398438 248.507812 374.21875 261.144531 Z M 374.21875 261.144531 " fill-opacity="1" fill-rule="nonzero"/><path fill="#505759" d="M 404.351562 239.4375 C 403.703125 240.40625 395.765625 260.011719 386.53125 283.015625 C 377.296875 306.019531 362.71875 341.820312 354.292969 362.394531 L 338.902344 400.140625 L 403.542969 400.140625 L 429.300781 383.777344 C 443.554688 374.867188 455.542969 366.929688 456.03125 366.121094 C 456.515625 365.308594 450.199219 348.460938 442.097656 328.535156 C 433.835938 308.609375 422.335938 280.097656 416.339844 265.03125 C 410.347656 249.964844 405 238.464844 404.351562 239.4375 Z M 404.351562 239.4375 " fill-opacity="1" fill-rule="nonzero"/><path fill="#505759" d="M 416.339844 240.085938 C 416.339844 240.730469 423.304688 258.226562 431.890625 278.964844 C 440.316406 299.699219 451.332031 326.914062 456.191406 339.390625 C 461.050781 351.863281 465.910156 362.878906 467.046875 363.851562 C 469.152344 365.796875 488.753906 373.570312 529.738281 388.800781 C 543.511719 393.984375 556.308594 398.683594 558.089844 399.492188 C 561.976562 401.113281 562.625 401.761719 512.890625 346.519531 C 492.480469 323.839844 470.285156 299.214844 463.480469 291.601562 C 430.109375 254.503906 420.550781 243.648438 418.445312 241.378906 C 417.3125 240.085938 416.339844 239.597656 416.339844 240.085938 Z M 416.339844 240.085938 " fill-opacity="1" fill-rule="nonzero"/><path fill="#505759" d="M 254.503906 415.855469 C 257.742188 419.257812 266.003906 428.488281 273.132812 436.589844 C 285.605469 450.523438 328.375 497.988281 345.707031 516.941406 C 350.242188 521.800781 362.71875 535.894531 373.410156 547.882812 C 384.101562 560.035156 393.011719 569.753906 393.175781 569.59375 C 393.496094 569.269531 388.476562 556.46875 382.15625 540.917969 C 375.839844 525.367188 364.660156 497.824219 357.210938 479.519531 C 349.921875 461.214844 340.363281 438.046875 336.148438 428.003906 L 328.535156 409.859375 L 248.832031 409.859375 Z M 254.503906 415.855469 " fill-opacity="1" fill-rule="nonzero"/><path fill="#505759" d="M 341.171875 415.855469 C 348.625 433.1875 377.296875 503.820312 395.765625 550.3125 C 400.300781 562.140625 404.515625 571.859375 405 571.859375 C 405.484375 571.859375 412.613281 555.335938 420.714844 534.925781 C 428.976562 514.675781 440.476562 486.484375 446.308594 472.390625 C 452.140625 458.136719 456.679688 445.660156 456.191406 444.691406 C 455.867188 443.71875 443.878906 435.457031 429.785156 426.382812 L 403.867188 409.859375 L 338.578125 409.859375 Z M 341.171875 415.855469 " fill-opacity="1" fill-rule="nonzero"/><path fill="#505759" d="M 511.921875 428.652344 C 487.457031 438.046875 466.882812 446.148438 466.398438 446.796875 C 465.75 447.445312 462.671875 454.894531 459.59375 463.320312 C 456.355469 471.742188 449.710938 488.59375 444.691406 500.578125 C 426.222656 544.480469 416.339844 569.105469 416.824219 569.59375 C 417.148438 569.914062 426.871094 559.386719 438.535156 546.265625 C 450.199219 533.140625 461.214844 520.992188 462.835938 519.210938 C 469.476562 511.921875 523.746094 451.332031 540.757812 432.054688 C 550.960938 420.714844 558.574219 411.480469 557.765625 411.640625 C 557.117188 411.640625 536.382812 419.417969 511.921875 428.652344 Z M 511.921875 428.652344 " fill-opacity="1" fill-rule="nonzero"/></svg>