<?xml version="1.0" standalone="no"?>
<!DOCTYPE svg PUBLIC "-//W3C//DTD SVG 20010904//EN"
 "http://www.w3.org/TR/2001/REC-SVG-20010904/DTD/svg10.dtd">
<svg version="1.0" xmlns="http://www.w3.org/2000/svg"
 width="500.000000pt" height="500.000000pt" viewBox="0 0 500.000000 500.000000"
 preserveAspectRatio="xMidYMid meet">

<g transform="translate(0.000000,500.000000) scale(0.100000,-0.100000)"
fill="#000000" stroke="none">
<path d="M2310 3388 c-69 -78 -134 -151 -145 -162 -11 -12 -96 -106 -190 -211
-180 -202 -225 -251 -320 -355 -33 -36 -73 -80 -89 -98 l-30 -32 247 0 246 0
21 48 c12 26 58 137 102 247 44 110 117 290 163 400 94 225 126 305 122 305
-1 0 -58 -64 -127 -142z"/>
<path d="M2496 3522 c-4 -6 -53 -127 -110 -269 -57 -142 -147 -363 -199 -490
l-95 -233 200 0 199 0 159 101 c88 55 162 104 165 109 3 5 -36 109 -86 232
-51 123 -122 299 -159 392 -37 93 -70 164 -74 158z"/>
<path d="M2570 3518 c0 -4 43 -112 96 -240 52 -128 120 -296 150 -373 30 -77
60 -145 67 -151 13 -12 134 -60 387 -154 85 -32 164 -61 175 -66 24 -10 28
-14 -279 327 -126 140 -263 292 -305 339 -206 229 -265 296 -278 310 -7 8 -13
11 -13 8z"/>
<path d="M1571 2433 c20 -21 71 -78 115 -128 77 -86 341 -379 448 -496 28 -30
105 -117 171 -191 66 -75 121 -135 122 -134 2 2 -29 81 -68 177 -39 96 -108
266 -154 379 -45 113 -104 256 -130 318 l-47 112 -246 0 -246 0 35 -37z"/>
<path d="M2106 2433 c46 -107 223 -543 337 -830 28 -73 54 -133 57 -133 3 0
47 102 97 228 51 125 122 299 158 386 36 88 64 165 61 171 -2 6 -76 57 -163
113 l-160 102 -202 0 -201 0 16 -37z"/>
<path d="M3160 2354 c-151 -58 -278 -108 -281 -112 -4 -4 -23 -50 -42 -102
-20 -52 -61 -156 -92 -230 -114 -271 -175 -423 -172 -426 2 -2 62 63 134 144
72 81 140 156 150 167 41 45 376 419 481 538 63 70 110 127 105 126 -4 0 -132
-48 -283 -105z"/>
</g>
</svg>
